<?xml version="1.0" encoding="utf-8"?>
<!-- Generator: Adobe Illustrator 23.1.0, SVG Export Plug-In . SVG Version: 6.00 Build 0)  -->
<svg version="1.1" id="Layer_1" xmlns="http://www.w3.org/2000/svg" xmlns:xlink="http://www.w3.org/1999/xlink" x="0px" y="0px"
	 viewBox="0 0 26.4 26.4" style="enable-background:new 0 0 26.4 26.4;" xml:space="preserve">
<style type="text/css">
	.st0{fill:#FFFFFF;}
</style>
<g transform="translate(-104.92 -30.261)">
	<path class="st0" d="M119.6,30.3h-2.9v14.7h2.9V30.3z M126.7,33.4l-2.1,2.1c2.4,1.9,3.8,4.8,3.8,7.9c0,5.7-4.6,10.3-10.3,10.3
		s-10.3-4.6-10.3-10.3c0-3.1,1.4-6,3.8-8l-2.1-2.1c-5.6,4.7-6.2,13.1-1.5,18.6c4.7,5.6,13.1,6.2,18.6,1.5c5.6-4.7,6.2-13.1,1.5-18.6
		C127.7,34.4,127.2,33.9,126.7,33.4L126.7,33.4z"/>
</g>
</svg>
