<svg xmlns="http://www.w3.org/2000/svg" xmlns:xlink="http://www.w3.org/1999/xlink" width="40.269" height="40.43" viewBox="0 0 40.269 40.43"><defs><style>.a{fill:#212529;}.b{opacity:0.4;}.c{clip-path:url(#a);}</style><clipPath id="a"><rect class="a" width="40.269" height="40.43"/></clipPath></defs><g class="b" transform="translate(-1246 -1246)"><g transform="translate(1246 1246)"><g class="c" transform="translate(0 0)"><path class="a" d="M1266.154,1245.762a20.155,20.155,0,1,0,20.154,20.154,20.154,20.154,0,0,0-20.154-20.154Zm-14.681,27.745c0-6.3,5.529-6.295,6.756-7.94l.14-.751a6.017,6.017,0,0,1-2.941-5.443c0-3.245,2.111-5.876,4.715-5.876,2.05,0,3.789,1.634,4.439,3.912-2.609.829-4.537,3.656-4.537,7.018a7.809,7.809,0,0,0,2.41,5.794c-.24.123-.508.249-.738.357a10.363,10.363,0,0,0-4.089,2.931Zm14.742,5.054h-8.732c0-6.3,5.529-6.294,6.756-7.94l.14-.751a6.018,6.018,0,0,1-2.941-5.443c0-3.246,2.111-5.877,4.715-5.877s4.714,2.631,4.714,5.877a6.036,6.036,0,0,1-2.9,5.423l.16.854c1.346,1.566,6.691,1.668,6.691,7.858Zm8.465-5.053h0a10.369,10.369,0,0,0-4.091-2.93c-.238-.112-.5-.236-.736-.356a7.829,7.829,0,0,0,2.41-5.8c0-3.361-1.929-6.188-4.536-7.017.649-2.279,2.389-3.913,4.439-3.913,2.6,0,4.714,2.631,4.714,5.877a6.039,6.039,0,0,1-2.9,5.423l.159.853c1.346,1.567,6.692,1.668,6.692,7.859Zm0,0" transform="translate(-1246 -1245.802)"/></g></g></g></svg>