<svg xmlns="http://www.w3.org/2000/svg" width="23.5" height="34.594" viewBox="0 0 23.5 34.594"><defs><style>.a{fill:#212529;stroke:#212529;stroke-width:0.5px;}</style></defs><g transform="translate(-785.75 -283.75)"><path class="a" d="M808.5,290.347h-2.033v-1.665a1.835,1.835,0,0,0-1.833-1.833H804.2V285.1a1.1,1.1,0,0,0-1.1-1.1h-6.27a1.1,1.1,0,0,0-1.1,1.1v1.749h-4.065V285.1a1.1,1.1,0,0,0-1.1-1.1H789.1a1.1,1.1,0,0,0-1.1,1.1v1.749h-.168A1.835,1.835,0,0,0,786,288.682v16.527a3.219,3.219,0,0,0,1.1,2.42l2,1.754-2.17,7.475a.967.967,0,0,0,.928,1.236h.8a.962.962,0,0,0,.925-.686l.588-1.942a.5.5,0,0,0-.957-.29l-.581,1.919H787.9l2.027-6.984.649.569-.733,2.421a.5.5,0,1,0,.957.29l.6-1.987,3.623,3.176a1.838,1.838,0,0,0,2.417,0l3.518-3.084,1.79,5.912a.961.961,0,0,0,.925.686h.8a.966.966,0,0,0,.928-1.236l-2.143-7.382,2.107-1.847a3.219,3.219,0,0,0,1.1-2.42v-.528H808.5a.5.5,0,0,0,.5-.5V290.848a.5.5,0,0,0-.5-.5ZM796.731,285.1a.1.1,0,0,1,.1-.1h6.27a.1.1,0,0,1,.1.1v1.749h-6.47Zm7.7,31.994H803.7l-1.915-6.323.648-.568Zm1.034-11.885a2.219,2.219,0,0,1-.756,1.668l-7.928,6.951a.836.836,0,0,1-1.1,0l-7.928-6.951a2.218,2.218,0,0,1-.756-1.668V288.682a.834.834,0,0,1,.833-.833h1.033a.5.5,0,0,0,.134-.981V285.1a.1.1,0,0,1,.1-.1h1.465a.1.1,0,0,1,.1.1v2.182a.6.6,0,0,0,.534.567h13.433a.834.834,0,0,1,.833.833Zm1-10.528H808v2.333h-1.533Zm0,3.333H808v2.333h-1.533ZM808,291.347v2.333h-1.533v-2.333Zm-1.533,12.333v-2.333H808v2.333Zm0,0"/><path class="a" d="M858,398.863h-9.523a1.407,1.407,0,0,0-1.4,1.405v10.926a1.863,1.863,0,0,0,.635,1.4l4.3,3.773a1.868,1.868,0,0,0,2.456,0l1.842-1.615a.5.5,0,1,0-.659-.752l-1.842,1.615a.865.865,0,0,1-1.137,0l-4.3-3.774a.862.862,0,0,1-.294-.648V403.26c.079.04.157.082.238.127a3.336,3.336,0,0,0,3.416,0,2.336,2.336,0,0,1,2.443,0,3.335,3.335,0,0,0,3.416,0,2.228,2.228,0,0,1,.821-.317v8.124a.863.863,0,0,1-.294.648l-.822.72a.5.5,0,1,0,.659.752l.822-.72a1.862,1.862,0,0,0,.635-1.4V400.268A1.407,1.407,0,0,0,858,398.863Zm-.9,3.65a2.337,2.337,0,0,1-2.443,0,3.334,3.334,0,0,0-3.416,0,2.339,2.339,0,0,1-2.444,0,3.742,3.742,0,0,0-.724-.331v-1.914a.405.405,0,0,1,.4-.4H858a.405.405,0,0,1,.405.4v1.795a3.106,3.106,0,0,0-1.307.45Zm0,0" transform="translate(-57.007 -107.214)"/><path class="a" d="M894.346,506.411a.54.54,0,1,1-.54-.54.54.54,0,0,1,.54.54Zm0,0" transform="translate(-100.123 -207.097)"/><path class="a" d="M936.729,550.075a.54.54,0,1,1-.54-.54.54.54,0,0,1,.54.54Zm0,0" transform="translate(-139.683 -247.853)"/><path class="a" d="M958.085,529.431a.54.54,0,1,1-.54-.54.54.54,0,0,1,.54.54Zm0,0" transform="translate(-159.617 -228.584)"/><path class="a" d="M920.5,594.564a.54.54,0,1,1-.541-.541.54.54,0,0,1,.541.541Zm0,0" transform="translate(-124.534 -289.379)"/></g></svg>