<svg xmlns="http://www.w3.org/2000/svg" xmlns:xlink="http://www.w3.org/1999/xlink" width="527.085" height="108.557" viewBox="0 0 527.085 108.557"><defs><style>.a{fill:#ffa11b;}.b{clip-path:url(#a);}.c{fill:#fff;font-size:55px;font-family:OpenSans-Bold, Open Sans;font-weight:700;}</style><clipPath id="a"><rect class="a" width="91.595" height="108.557"/></clipPath></defs><g transform="translate(-772 -230.5)"><g transform="translate(772 230.5)"><g transform="translate(0 0)"><g class="b" transform="translate(0 0)"><path class="a" d="M875.6,376.518H865v-6.466a14.628,14.628,0,0,0-24.021-16.569,9.729,9.729,0,0,0-8.776,1.1,13.766,13.766,0,0,0-21.12,2,9.73,9.73,0,0,0-13.075,9.511c0,.046-.007.093-.007.14v79.722a10.614,10.614,0,0,0,10.6,10.6h45.8a10.613,10.613,0,0,0,10.6-10.6v-4.135h10.6A14.009,14.009,0,0,0,889.6,427.828V390.511A14.01,14.01,0,0,0,875.6,376.518ZM860.76,445.956a6.368,6.368,0,0,1-6.361,6.361H808.6a6.368,6.368,0,0,1-6.361-6.361V373.748a9.788,9.788,0,0,0,4.24,1.618v24.263a2.12,2.12,0,0,0,4.241,0V374.979c.152-.049.3-.1.454-.158a3.03,3.03,0,0,1,2.932.451l.147.11a2.956,2.956,0,0,1,1.2,2.358v9.044a6.5,6.5,0,0,0,13,0V376.758l.022-.026.024-.012a.035.035,0,0,1,.041.014,10.351,10.351,0,0,0,11.5,5.585,1.382,1.382,0,0,1,1.172.287,1.526,1.526,0,0,1,.572,1.193v13.92a7.589,7.589,0,0,0,2.266,5.381,7.254,7.254,0,0,0,5.11,2.11h.139a7.271,7.271,0,0,0,2.986-.7v36.363H810.722V418.711a2.12,2.12,0,0,0-4.241,0v24.277a2.121,2.121,0,0,0,2.121,2.12h45.8a2.121,2.121,0,0,0,2.12-2.12l.005-63.751a3.785,3.785,0,0,1,2.163-3.389,14.734,14.734,0,0,0,2.072-1.209Zm-3.9-73.937a8.046,8.046,0,0,0-4.58,7.219l-.006,18.707a3.146,3.146,0,0,1-3.067,3.026,3.055,3.055,0,0,1-2.2-.9,3.323,3.323,0,0,1-1-2.355V383.8a5.748,5.748,0,0,0-2.151-4.495,5.607,5.607,0,0,0-4.732-1.131,6.139,6.139,0,0,1-1.3.138,6.062,6.062,0,0,1-5.488-3.435,4.271,4.271,0,0,0-5.715-1.969l-.023.012a4.28,4.28,0,0,0-2.4,3.837v10.026a2.257,2.257,0,1,1-4.515,0V377.74a7.214,7.214,0,0,0-2.906-5.758l-.107-.08a7.243,7.243,0,0,0-7.009-1.046,5.492,5.492,0,0,1-7.418-5.526,5.543,5.543,0,0,1,5.219-5.094,5.463,5.463,0,0,1,3.281.9,2.123,2.123,0,0,0,3.089-.865,9.532,9.532,0,0,1,16.405-1.459,2.121,2.121,0,0,0,3.314.178,5.488,5.488,0,0,1,7-1.024,2.12,2.12,0,0,0,2.934-.7,10.394,10.394,0,1,1,13.367,14.754ZM865,390.087h10.6a.424.424,0,0,1,.424.424v37.317a.424.424,0,0,1-.424.424H865Zm20.354,37.741a9.764,9.764,0,0,1-9.753,9.753H865v-5.089h10.6a4.67,4.67,0,0,0,4.664-4.665V390.511a4.67,4.67,0,0,0-4.664-4.665H865v-5.089h10.6a9.764,9.764,0,0,1,9.753,9.753Zm0,0" transform="translate(-798 -348)"/></g></g><path class="a" d="M830.121,561.115a2.123,2.123,0,1,0-1.5-.622,2.135,2.135,0,0,0,1.5.622Zm0,0" transform="translate(-819.519 -497.826)"/><path class="a" d="M862.861,554.6a6.361,6.361,0,1,0-6.361-6.361,6.368,6.368,0,0,0,6.361,6.361Zm0-8.481a2.12,2.12,0,1,1-2.121,2.12,2.122,2.122,0,0,1,2.121-2.12Zm0,0" transform="translate(-839.962 -487.066)"/><path class="a" d="M928.955,596.463a6.361,6.361,0,1,0-6.361-6.361,6.367,6.367,0,0,0,6.361,6.361Zm0-8.481a2.12,2.12,0,1,1-2.12,2.12,2.122,2.122,0,0,1,2.12-2.12Zm0,0" transform="translate(-887.371 -517.097)"/><path class="a" d="M924.718,524.986a2.12,2.12,0,1,0-1.5-.62,2.126,2.126,0,0,0,1.5.62Zm0,0" transform="translate(-887.374 -471.91)"/><path class="a" d="M888.62,631.875a2.123,2.123,0,1,0,1.5.622,2.131,2.131,0,0,0-1.5-.622Zm0,0" transform="translate(-861.481 -551.623)"/></g><text class="c" transform="translate(883.085 316.478)"><tspan x="0" y="0">BrewersInsight</tspan></text></g></svg>