<svg xmlns="http://www.w3.org/2000/svg" width="195.902" height="139.749" viewBox="0 0 195.902 139.749"><defs><style>.a{fill:#31acd8;}.a,.b,.c{fill-rule:evenodd;}.b{fill:#82c8e6;}.c{fill:#009cce;}</style></defs><g transform="translate(-16.975 -25.531)"><path class="a" d="M102.056,25.531a53.555,53.555,0,0,1,28.437,8.034,54.1,54.1,0,0,0-21.215,99.757,47.717,47.717,0,0,1-7.222.542,54.167,54.167,0,0,1,0-108.333Z" transform="translate(7.454)"/><path class="b" d="M117.093,133.015A54.114,54.114,0,0,1,44.509,82.1a53.834,53.834,0,0,1,8.215-28.709,54.19,54.19,0,1,0,64.369,79.626Z" transform="translate(0 6.717)"/><path class="c" d="M141.842,32.8a54.091,54.091,0,0,1,53.987,50.375,54.14,54.14,0,0,0-91.812,38.911c0,1.263.091,2.527.181,3.792A54.142,54.142,0,0,1,141.842,32.8Z" transform="translate(17.048 1.754)"/></g></svg>