<svg xmlns="http://www.w3.org/2000/svg" xmlns:xlink="http://www.w3.org/1999/xlink" width="41.099" height="35" viewBox="0 0 41.099 35"><defs><style>.a{fill:#212529;}.b{opacity:0.4;}.c{clip-path:url(#a);}</style><clipPath id="a"><rect class="a" width="41.099" height="35"/></clipPath></defs><g class="b" transform="translate(-765 -375)"><path class="a" d="M791.4,592.934v6.656a.744.744,0,0,0,.743.742h5.145a.744.744,0,0,0,.743-.742V587.881l-3.737,3.737a4.532,4.532,0,0,1-2.894,1.316Zm0,0" transform="translate(-23.614 -190.433)"/><path class="a" d="M878.6,587.08v11.793a.743.743,0,0,0,.742.742h5.146a.743.743,0,0,0,.742-.742v-6.943a4.484,4.484,0,0,1-3.1-1.316Zm0,0" transform="translate(-101.623 -189.717)"/><path class="a" d="M965.8,571.086v7.677a.743.743,0,0,0,.742.742h5.146a.743.743,0,0,0,.742-.742V564.6l-5.9,5.9a4.4,4.4,0,0,1-.734.59Zm0,0" transform="translate(-179.627 -169.606)"/><g transform="translate(765 375)"><g class="c" transform="translate(0)"><path class="a" d="M1059.133,482.041,1053,488.174V504.91a.744.744,0,0,0,.742.742h5.146a.743.743,0,0,0,.742-.742V482.5c-.169-.143-.3-.27-.388-.354Zm0,0" transform="translate(-1022.631 -470.754)"/><path class="a" d="M805.71,375.637a1.433,1.433,0,0,0-1.088-.4h-.135c-2.4.11-4.783.228-7.179.337a1.548,1.548,0,0,0-1.1.38,1.27,1.27,0,0,0,.118,1.889l.6.607c.414.422.835.844,1.257,1.257L783.7,394.2l-6.5-6.5a2.067,2.067,0,0,0-2.927,0l-8.664,8.655a2.067,2.067,0,0,0,0,2.927l.388.388a2.067,2.067,0,0,0,2.927,0l6.808-6.808,6.5,6.5a2.077,2.077,0,0,0,2.936,0L801.5,383.026l1.847,1.839a1.4,1.4,0,0,0,.987.523,1.219,1.219,0,0,0,.591-.16,1.6,1.6,0,0,0,.354-.262,1.713,1.713,0,0,0,.447-1.189c.068-1.553.144-3.1.22-4.665l.11-2.337a1.449,1.449,0,0,0-.346-1.139Zm0,0" transform="translate(-764.999 -375.215)"/></g></g></g></svg>