<svg xmlns="http://www.w3.org/2000/svg" xmlns:xlink="http://www.w3.org/1999/xlink" width="172" height="34.204" viewBox="0 0 172 34.204"><defs><style>.a{fill:none;}.b{clip-path:url(#a);}.c,.d{fill:#0b2044;}.d{font-size:18px;font-family:OpenSans-Bold, Open Sans;font-weight:700;}</style><clipPath id="a"><rect class="a" width="28.859" height="34.204"/></clipPath></defs><g transform="translate(-28 -25.5)"><g transform="translate(-770 -322.5)"><g transform="translate(798 348)"><g class="b" transform="translate(0 0)"><path class="c" d="M822.45,356.985h-3.34v-2.037a4.609,4.609,0,0,0-7.568-5.22,3.065,3.065,0,0,0-2.765.347,4.337,4.337,0,0,0-6.655.629,3.065,3.065,0,0,0-4.12,3c0,.015,0,.029,0,.044v25.118a3.344,3.344,0,0,0,3.34,3.34h14.43a3.344,3.344,0,0,0,3.34-3.34v-1.3h3.34a4.414,4.414,0,0,0,4.409-4.409V361.394a4.414,4.414,0,0,0-4.409-4.409Zm-4.676,21.878a2.006,2.006,0,0,1-2,2H801.34a2.006,2.006,0,0,1-2-2V356.113a3.083,3.083,0,0,0,1.336.51v7.645a.668.668,0,0,0,1.336,0V356.5c.048-.015.1-.032.143-.05a.955.955,0,0,1,.924.142l.047.035a.931.931,0,0,1,.377.743v2.85a2.047,2.047,0,0,0,4.095,0v-3.159l.007-.008.008,0a.011.011,0,0,1,.013,0,3.261,3.261,0,0,0,3.622,1.76.435.435,0,0,1,.369.09.481.481,0,0,1,.18.376v4.386a2.391,2.391,0,0,0,.714,1.7,2.285,2.285,0,0,0,1.61.665h.044a2.29,2.29,0,0,0,.941-.222V377.26H802.008v-6.981a.668.668,0,0,0-1.336,0v7.649a.668.668,0,0,0,.668.668h14.43a.668.668,0,0,0,.668-.668l0-20.086a1.192,1.192,0,0,1,.682-1.068,4.638,4.638,0,0,0,.653-.381Zm-1.227-23.3a2.535,2.535,0,0,0-1.443,2.274l0,5.894a.991.991,0,0,1-.966.953.963.963,0,0,1-.692-.282,1.047,1.047,0,0,1-.314-.742V359.28a1.811,1.811,0,0,0-.678-1.416,1.767,1.767,0,0,0-1.491-.356,1.933,1.933,0,0,1-.409.044,1.91,1.91,0,0,1-1.729-1.082,1.346,1.346,0,0,0-1.8-.62l-.007,0a1.348,1.348,0,0,0-.757,1.209v3.159a.711.711,0,1,1-1.422,0v-2.85a2.273,2.273,0,0,0-.916-1.814l-.034-.025a2.282,2.282,0,0,0-2.208-.329,1.73,1.73,0,0,1-2.337-1.741,1.746,1.746,0,0,1,1.644-1.605,1.721,1.721,0,0,1,1.034.284.669.669,0,0,0,.973-.272,3,3,0,0,1,5.169-.46.668.668,0,0,0,1.044.056,1.729,1.729,0,0,1,2.206-.323.668.668,0,0,0,.924-.222,3.275,3.275,0,1,1,4.211,4.648Zm2.563,5.693h3.34a.134.134,0,0,1,.133.134v11.758a.134.134,0,0,1-.133.134h-3.34Zm6.413,11.891a3.076,3.076,0,0,1-3.073,3.073h-3.34v-1.6h3.34a1.471,1.471,0,0,0,1.47-1.47V361.394a1.471,1.471,0,0,0-1.47-1.47h-3.34v-1.6h3.34a3.076,3.076,0,0,1,3.073,3.073Zm0,0" transform="translate(-798 -348)"/></g></g><path class="c" d="M828.668,558.211a.669.669,0,1,0-.472-.2.673.673,0,0,0,.472.2Zm0,0" transform="translate(-27.328 -190.27)"/><path class="c" d="M858.5,545.883a2,2,0,1,0-2-2,2.006,2.006,0,0,0,2,2Zm0-2.672a.668.668,0,1,1-.668.668.669.669,0,0,1,.668-.668Zm0,0" transform="translate(-53.289 -176.606)"/><path class="c" d="M924.6,587.75a2,2,0,1,0-2-2,2.006,2.006,0,0,0,2,2Zm0-2.672a.668.668,0,1,1-.668.668.669.669,0,0,1,.668-.668Zm0,0" transform="translate(-113.496 -214.744)"/><path class="c" d="M923.266,522.082a.668.668,0,1,0-.472-.2.67.67,0,0,0,.472.2Zm0,0" transform="translate(-113.5 -157.359)"/><path class="c" d="M887.168,631.875a.669.669,0,1,0,.472.2.672.672,0,0,0-.472-.2Zm0,0" transform="translate(-80.617 -258.59)"/></g><text class="d" transform="translate(63 53)"><tspan x="0" y="0">BrewersInsight</tspan></text></g></svg>