<svg xmlns="http://www.w3.org/2000/svg" width="39" height="30.643" viewBox="0 0 39 30.643">
  <g id="Group_282" data-name="Group 282" transform="translate(-901 -494)" opacity="0.4">
    <path id="Path_311" data-name="Path 311" d="M938.454,505.927a19.148,19.148,0,0,0-10.381-10.381,19.327,19.327,0,0,0-15.147,0,19.159,19.159,0,0,0-10.381,10.381,19.451,19.451,0,0,0,1.523,18.085,1.323,1.323,0,0,0,1.175.631h30.512a1.323,1.323,0,0,0,1.175-.631,19.45,19.45,0,0,0,1.524-18.085ZM918.53,497.6a2.787,2.787,0,1,1-.815,1.97,2.688,2.688,0,0,1,.815-1.97Zm-9.988,17.868a2.787,2.787,0,1,1,.815-1.969,2.686,2.686,0,0,1-.815,1.969Zm4.178-9.751a2.784,2.784,0,1,1,.816-1.97,2.679,2.679,0,0,1-.816,1.97Zm12.329.185-2.2,8.313a4.137,4.137,0,0,1,1.568,1.981,4.187,4.187,0,0,1-1.806,5.092,4.072,4.072,0,0,1-3.177.435,4,4,0,0,1-2.547-1.937,4.17,4.17,0,0,1,.937-5.321,4.146,4.146,0,0,1,2.328-.947l2.2-8.314a1.369,1.369,0,0,1,.652-.86,1.3,1.3,0,0,1,1.044-.141,1.426,1.426,0,0,1,1,1.7Zm3.232-.185a2.784,2.784,0,1,1,1.97.816,2.678,2.678,0,0,1-1.97-.816Zm8.117,9.751a2.784,2.784,0,1,1,.816-1.969,2.684,2.684,0,0,1-.816,1.969Zm0,0" transform="translate(0 0)" fill="#212529"/>
  </g>
</svg>
