<svg xmlns="http://www.w3.org/2000/svg" width="11.629" height="15.266" viewBox="0 0 11.629 15.266"><defs><style>.a{fill:#d6d6d6;}</style></defs><g transform="translate(-60.983 0)"><path class="a" d="M67.156,3.747,64.472.169a.463.463,0,0,0-.715,0L61.073,3.747a.447.447,0,0,0,.358.715h1.342v8.5a.447.447,0,0,0,.447.447h1.789a.442.442,0,0,0,.441-.447v-8.5H66.8A.448.448,0,0,0,67.156,3.747Z" transform="translate(0 0)"/><path class="a" d="M246.8,70.946h-1.348v-8.5a.442.442,0,0,0-.441-.447h-1.789a.447.447,0,0,0-.447.447v8.5h-1.342a.447.447,0,0,0-.358.715l2.684,3.578a.447.447,0,0,0,.715,0l2.684-3.578A.448.448,0,0,0,246.8,70.946Z" transform="translate(-174.635 -60.153)"/></g></svg>