<svg xmlns="http://www.w3.org/2000/svg" xmlns:xlink="http://www.w3.org/1999/xlink" width="15" height="15.266" viewBox="0 0 15 15.266"><defs><style>.a{fill:#999;}.b{clip-path:url(#a);}</style><clipPath id="a"><rect class="a" width="15" height="15.266"/></clipPath></defs><g transform="translate(-902 -482)"><path class="a" d="M958.639,517.548h3.81a.263.263,0,0,0,.272-.272v-1.633a.263.263,0,0,0-.272-.272h-3.81a.262.262,0,0,0-.272.272v1.633a.262.262,0,0,0,.272.272Zm0,0" transform="translate(-49.012 -29.017)"/><g transform="translate(902 482)"><g class="b" transform="translate(0 0)"><path class="a" d="M958.639,484.177h2.177a.261.261,0,0,0,.272-.272v-1.633a.261.261,0,0,0-.272-.272h-2.177a.262.262,0,0,0-.272.272v1.633a.262.262,0,0,0,.272.272Zm0,0" transform="translate(-951.012 -482)"/><path class="a" d="M907.72,493.974h-1.633v-11.7a.262.262,0,0,0-.272-.272h-1.633a.262.262,0,0,0-.272.272v11.7h-1.633a.253.253,0,0,0-.255.17.258.258,0,0,0,.06.3l2.722,2.722a.305.305,0,0,0,.2.076.284.284,0,0,0,.2-.076l2.713-2.713a.32.32,0,0,0,.085-.2.262.262,0,0,0-.272-.273Zm0,0" transform="translate(-901.999 -482)"/></g></g><path class="a" d="M965.91,582.19a.264.264,0,0,0-.2-.077h-7.076a.262.262,0,0,0-.272.272v1.633a.262.262,0,0,0,.272.272h7.076a.262.262,0,0,0,.272-.272v-1.633a.265.265,0,0,0-.076-.2Zm0,0" transform="translate(-49.012 -87.05)"/><path class="a" d="M958.639,550.919h5.443a.262.262,0,0,0,.272-.272v-1.633a.262.262,0,0,0-.272-.272h-5.443a.262.262,0,0,0-.272.272v1.633a.262.262,0,0,0,.272.272Zm0,0" transform="translate(-49.012 -58.033)"/></g></svg>