<svg xmlns="http://www.w3.org/2000/svg" width="22.796" height="28" viewBox="0 0 22.796 28"><defs><style>.a{fill:#ff2116;}</style></defs><path class="a" d="M113.718,63H102.472a2.985,2.985,0,0,0-2.98,2.98V77H99.2A1.2,1.2,0,0,0,98,78.2v7.283a1.2,1.2,0,0,0,1.2,1.2h.291V88.02a2.983,2.983,0,0,0,2.98,2.98h15.344a2.983,2.983,0,0,0,2.979-2.98V70.053ZM101.15,79.515a9.4,9.4,0,0,1,1.543-.1,2.423,2.423,0,0,1,1.544.4,1.477,1.477,0,0,1,.54,1.169,1.615,1.615,0,0,1-.464,1.2,2.343,2.343,0,0,1-1.641.532,2.929,2.929,0,0,1-.39-.022V84.5H101.15Zm16.666,9.66H102.472a1.156,1.156,0,0,1-1.154-1.155V86.684h14.3a1.2,1.2,0,0,0,1.2-1.2V78.2a1.2,1.2,0,0,0-1.2-1.2h-14.3V65.98a1.156,1.156,0,0,1,1.154-1.153l10.563-.011v3.9a2.067,2.067,0,0,0,2.067,2.067l3.825-.011.043,17.244a1.155,1.155,0,0,1-1.153,1.155Zm-12.31-4.7V79.515a10.27,10.27,0,0,1,1.544-.1,3.251,3.251,0,0,1,2.068.539,2.235,2.235,0,0,1,.854,1.9,2.559,2.559,0,0,1-.839,2.045,3.625,3.625,0,0,1-2.33.652,9.9,9.9,0,0,1-1.3-.075Zm8.179-2.937v.929h-1.814V84.5h-1.146V79.448h3.087v.936h-1.941v1.154Zm0,0" transform="translate(-98 -63)"/></svg>