<svg xmlns="http://www.w3.org/2000/svg" width="44" height="44.361" viewBox="0 0 44 44.361"><defs><style>.a{opacity:0.8;}.b{fill:#9fa9af;}</style></defs><g class="a" transform="translate(-80 -202.89)"><path class="b" d="M187.746,465.765l-6.7,3.613-.634.334c.006.1.01.194.01.293a.608.608,0,0,1-.608.608h-.028l-4.624-.209a22.288,22.288,0,0,0-4.054.187.608.608,0,1,1-.167-1.2,23.55,23.55,0,0,1,4.275-.2l3.93.178a3.428,3.428,0,0,0-3.362-2.784h-5.421a7.091,7.091,0,0,1-3.071-.7l-.559-.27a8.379,8.379,0,0,0-8.7.837l-1.331,1.185a5.9,5.9,0,0,1-2.219,1.241l2.663,8.735,3.739-2.363.028-.017a3.624,3.624,0,0,1,2.642-.358l8.129,1.5a9.322,9.322,0,0,0,5.72-.795l13.536-9.294a2.656,2.656,0,0,0-3.2-.512Zm0,0" transform="translate(-66.941 -235.352)"/><path class="b" d="M401.832,468.252l5.344-2.883a2.075,2.075,0,0,0-2.269-.5l-4.121,2.22a4.619,4.619,0,0,1,.732,1.33Zm0,0" transform="translate(-288.297 -235.298)"/><path class="b" d="M131.784,610.575a.7.7,0,1,0-.7-.7.7.7,0,0,0,.7.7Zm0,0" transform="translate(-45.912 -365.14)"/><path class="b" d="M375.892,461.064l-.014.008-1.3.7a4.619,4.619,0,0,1,1.736.781l2.717-1.464a3.091,3.091,0,0,0-3.144-.03Zm0,0" transform="translate(-264.747 -231.654)"/><path class="b" d="M80,476.738l2.027,16.625h8.432L85.39,476.738Zm7.785,14.112a1.913,1.913,0,1,1-1.913-1.913,1.913,1.913,0,0,1,1.913,1.913Zm0,0" transform="translate(0 -246.113)"/><path class="b" d="M268.035,211.687a3.4,3.4,0,0,0,3.4-3.4v-2a3.4,3.4,0,0,0-6.795,0v2a3.4,3.4,0,0,0,3.4,3.4Zm0,0" transform="translate(-165.937 0)"/><path class="b" d="M388.129,235.708a2.9,2.9,0,0,0,2.9-2.9v-1.753a2.9,2.9,0,0,0-5.8,0v1.753a2.9,2.9,0,0,0,2.9,2.9Zm0,0" transform="translate(-274.317 -22.711)"/><path class="b" d="M156.655,235.859a2.9,2.9,0,0,0,2.9-2.9v-1.753a2.9,2.9,0,0,0-5.8,0v1.753a2.9,2.9,0,0,0,2.9,2.9Zm0,0" transform="translate(-66.288 -22.862)"/><path class="b" d="M382.176,331.175a3.341,3.341,0,0,0-2.843-3.3,4,4,0,0,1-6-.016,3.291,3.291,0,0,0-1.3.428,5.083,5.083,0,0,1,.561,2.327v3.9h9.572Zm0,0" transform="translate(-262.465 -112.312)"/><path class="b" d="M230.774,320.636v5.9h13.654v-5.9a3.9,3.9,0,0,0-3.368-3.863,4.489,4.489,0,0,1-6.779-.016,3.926,3.926,0,0,0-3.507,3.879Zm0,0" transform="translate(-135.504 -102.335)"/><path class="b" d="M124.11,331.179v3.337H133.7v-3.9a5.1,5.1,0,0,1,.556-2.32,3.309,3.309,0,0,0-1.186-.419,4,4,0,0,1-5.994-.015,3.36,3.36,0,0,0-2.963,3.316Zm0,0" transform="translate(-39.643 -112.316)"/></g></svg>